<?xml version="1.0" encoding="UTF-8"?>
<svg width="100px" height="100px" viewBox="0 0 100 100" version="1.1" xmlns="http://www.w3.org/2000/svg" xmlns:xlink="http://www.w3.org/1999/xlink">
    <!-- Generator: Sketch 52.5 (67469) - http://www.bohemiancoding.com/sketch -->
    <title>bc_1_1</title>
    <desc>Created with Sketch.</desc>
    <g id="Business-Card" stroke="none" stroke-width="1" fill="none" fill-rule="evenodd">
        <g id="bc_1_1" transform="translate(-298.000000, -272.000000)" fill="#FFFFFF" fill-rule="nonzero">
            <g id="Group" transform="translate(298.000000, 272.000000)">
                <g id="LogoWhite6" transform="translate(5.000000, 6.000000)">
                    <path d="M15.8889021,23.0208393 C21.7519276,15.2277319 30.4897934,10.1414305 40.1138106,8.92051029 L40.1138106,22.3818046 L22.1743952,26.6835998 L15.8889021,23.0208393 Z M20.4381566,36.1080646 L44.6270009,30.3047971 L56.007865,33.1207067 L11.3808641,59.1029268 C7.61472029,50.0837037 7.61987234,39.9214918 11.3808641,30.8970732 L20.4381566,36.1080646 Z M33.2409845,56.8792933 L77.8628334,30.8970732 C81.6289771,39.9162963 81.6289771,50.0837037 77.8628334,59.1029268 L68.7797806,53.8140044 L44.6733691,58.5314323 L33.2409845,56.8792933 Z M44.6733691,67.6233909 L67.0693021,63.3164003 L73.3547954,66.9791607 C70.5057152,70.7770018 66.9920215,73.9150262 63.0404043,76.27374 C57.553478,79.5520406 51.2267685,81.33926 44.663065,81.3496506 C33.3697859,81.3600416 22.7205118,76.0451422 15.8889021,66.9791607 L22.1743952,63.3164003 L44.6733691,67.6233909 Z M49.1298869,22.3818046 L49.1298869,8.92051029 C58.759056,10.1414305 67.4866177,15.2225365 73.3547954,23.0208393 L67.0693021,26.6835998 L49.1298869,22.3818046 Z M44.6218486,0 C19.9796247,0 0,20.1477804 0,45.0025976 C0,69.8522195 19.9796247,90 44.6218486,90 C69.2692248,90 89.2436975,69.8522195 89.2436975,45.0025976 C89.2436975,20.1477804 69.2692248,0 44.6218486,0 Z" id="Shape"></path>
                </g>
            </g>
        </g>
    </g>
</svg>